<svg width="26" height="24" viewBox="0 0 26 24" fill="none" xmlns="http://www.w3.org/2000/svg">
<path d="M25.0287 6.80248L13.2419 0.438313C12.9817 0.298313 12.6702 0.298313 12.41 0.438313L0.625545 6.80248C0.200879 7.03232 0.0422148 7.56315 0.272048 7.98898C0.429548 8.28065 0.731715 8.44747 1.04205 8.44747C1.18205 8.44747 1.32555 8.41247 1.45738 8.34247L2.40821 7.82914L4.30871 21.261C4.55838 22.6785 5.83471 23.6666 7.40971 23.6666H18.2387C19.816 23.6666 21.0912 22.6773 21.3455 21.2318L23.2425 7.82681L24.1969 8.34247C24.6215 8.56764 25.1535 8.41247 25.3834 7.98781C25.612 7.56431 25.4534 7.03348 25.0287 6.80248ZM19.6177 20.9576C19.4929 21.6646 18.7975 21.9166 18.241 21.9166H7.41205C6.85205 21.9166 6.15788 21.6646 6.03771 20.9856L4.05205 6.94248L12.8254 2.20348L21.601 6.94014L19.6177 20.9576Z" fill="black"/>
<path d="M8.41535 12.1854C8.41535 14.6168 10.3929 16.5954 12.8254 16.5954C15.2579 16.5954 17.2354 14.6168 17.2354 12.1854C17.2354 9.75411 15.2579 7.77544 12.8254 7.77544C10.3929 7.77544 8.41535 9.75411 8.41535 12.1854ZM15.4854 12.1854C15.4854 13.6531 14.293 14.8454 12.8254 14.8454C11.3577 14.8454 10.1654 13.6531 10.1654 12.1854C10.1654 10.7178 11.3577 9.52544 12.8254 9.52544C14.293 9.52544 15.4854 10.7178 15.4854 12.1854Z" fill="black"/>
</svg>
